<?xml version="1.0" encoding="utf-8"?><!-- Uploaded to: SVG Repo, www.svgrepo.com, Generator: SVG Repo Mixer Tools -->
<svg width="256" height="256" viewBox="0 0 24 24" fill="none" xmlns="http://www.w3.org/2000/svg">
<path fill-rule="evenodd" clip-rule="evenodd" d="M16.5394 9.59998V11.991H17.1508C18.2256 12.0549 19.0479 12.9948 18.9906 14.094C19.0462 15.192 18.2244 16.13 17.1508 16.194H16.5394C16.4151 17.7577 15.1521 18.9707 13.6178 19H9.9459C8.29002 18.9617 6.97711 17.56 7.01153 15.867V9.59998H16.5394Z" stroke="#f0f0f0" stroke-width="1.5" stroke-linecap="round" stroke-linejoin="round"/>
<path d="M13.6178 18.25C13.2036 18.25 12.8678 18.5858 12.8678 19C12.8678 19.4142 13.2036 19.75 13.6178 19.75V18.25ZM18.9906 19.75C19.4048 19.75 19.7406 19.4142 19.7406 19C19.7406 18.5858 19.4048 18.25 18.9906 18.25V19.75ZM9.9459 19.75C10.3601 19.75 10.6959 19.4142 10.6959 19C10.6959 18.5858 10.3601 18.25 9.9459 18.25V19.75ZM5.29688 18.25C4.88266 18.25 4.54688 18.5858 4.54688 19C4.54688 19.4142 4.88266 19.75 5.29688 19.75V18.25ZM17.2894 11.991C17.2894 11.5768 16.9537 11.241 16.5394 11.241C16.1252 11.241 15.7894 11.5768 15.7894 11.991H17.2894ZM15.7894 16.2C15.7894 16.6142 16.1252 16.95 16.5394 16.95C16.9537 16.95 17.2894 16.6142 17.2894 16.2H15.7894ZM9.10897 8.1157C9.433 8.37373 9.90485 8.32023 10.1629 7.9962C10.4209 7.67217 10.3674 7.20032 10.0434 6.9423L9.10897 8.1157ZM8.72345 5.7765L9.47337 5.7661L8.72345 5.7765ZM10.011 4.57317C10.3275 4.30602 10.3676 3.83284 10.1004 3.51629C9.83329 3.19974 9.36011 3.15968 9.04356 3.42683L10.011 4.57317ZM11.6765 8.1157C12.0006 8.37373 12.4724 8.32023 12.7305 7.9962C12.9885 7.67217 12.935 7.20032 12.611 6.9423L11.6765 8.1157ZM11.291 5.7765L12.041 5.7661L11.291 5.7765ZM12.5786 4.57317C12.8951 4.30602 12.9352 3.83284 12.668 3.51629C12.4009 3.19974 11.9277 3.15968 11.6111 3.42683L12.5786 4.57317ZM14.2441 8.1157C14.5682 8.37373 15.04 8.32023 15.298 7.9962C15.5561 7.67217 15.5026 7.20032 15.1785 6.9423L14.2441 8.1157ZM13.8586 5.7765L14.6085 5.7661L13.8586 5.7765ZM15.1461 4.57317C15.4627 4.30602 15.5027 3.83284 15.2356 3.51629C14.9684 3.19974 14.4953 3.15968 14.1787 3.42683L15.1461 4.57317ZM13.6178 19.75H18.9906V18.25H13.6178V19.75ZM9.9459 18.25H5.29688V19.75H9.9459V18.25ZM15.7894 11.991V16.2H17.2894V11.991H15.7894ZM10.0434 6.9423C9.69246 6.66286 9.47982 6.23109 9.47337 5.7661L7.97352 5.78689C7.98609 6.69424 8.40079 7.55177 9.10897 8.1157L10.0434 6.9423ZM9.47337 5.7661C9.46693 5.30109 9.66757 4.86298 10.011 4.57317L9.04356 3.42683C8.35167 4.01072 7.96094 4.87958 7.97352 5.78689L9.47337 5.7661ZM12.611 6.9423C12.26 6.66286 12.0474 6.23109 12.041 5.7661L10.5411 5.78689C10.5537 6.69424 10.9684 7.55177 11.6765 8.1157L12.611 6.9423ZM12.041 5.7661C12.0345 5.30109 12.2351 4.86298 12.5786 4.57317L11.6111 3.42683C10.9193 4.01072 10.5285 4.87958 10.5411 5.78689L12.041 5.7661ZM15.1785 6.9423C14.8276 6.66286 14.615 6.23109 14.6085 5.7661L13.1087 5.78689C13.1212 6.69424 13.536 7.55177 14.2441 8.1157L15.1785 6.9423ZM14.6085 5.7661C14.6021 5.30109 14.8027 4.86298 15.1461 4.57317L14.1787 3.42683C13.4868 4.01072 13.0961 4.87958 13.1087 5.78689L14.6085 5.7661Z" fill="#f0f0f0"/>
</svg>
